<?xml version="1.0" encoding="UTF-8" standalone="no"?>
<svg
   version="1.1"
   id="Layer_1"
   x="0px"
   y="0px"
   width="100%"
   viewBox="0 0 512 512"
   enable-background="new 0 0 512 512"
   xml:space="preserve"
   sodipodi:docname="file.svg"
   inkscape:version="1.4 (86a8ad7, 2024-10-11)"
   xmlns:inkscape="http://www.inkscape.org/namespaces/inkscape"
   xmlns:sodipodi="http://sodipodi.sourceforge.net/DTD/sodipodi-0.dtd"
   xmlns="http://www.w3.org/2000/svg"
   xmlns:svg="http://www.w3.org/2000/svg"><defs
   id="defs4" /><sodipodi:namedview
   id="namedview4"
   pagecolor="#ffffff"
   bordercolor="#000000"
   borderopacity="0.25"
   inkscape:showpageshadow="2"
   inkscape:pageopacity="0.0"
   inkscape:pagecheckerboard="0"
   inkscape:deskcolor="#d1d1d1"
   inkscape:zoom="2.4082031"
   inkscape:cx="255.79238"
   inkscape:cy="256"
   inkscape:window-width="3840"
   inkscape:window-height="1514"
   inkscape:window-x="2549"
   inkscape:window-y="-11"
   inkscape:window-maximized="1"
   inkscape:current-layer="Layer_1" />
<path
   fill="#FF9800"
   opacity="1.000000"
   stroke="none"
   d=" M340.000000,513.000000   C226.694199,513.000000 113.888390,513.000000 1.041291,513.000000   C1.041291,342.402496 1.041291,171.804993 1.041291,1.103745   C171.555817,1.103745 342.111694,1.103745 512.833801,1.103745   C512.833801,171.666534 512.833801,342.333252 512.833801,513.000000   C455.471649,513.000000 397.985809,513.000000 340.000000,513.000000  M229.571472,126.213211   C228.955292,132.332550 225.167068,134.479156 219.513062,136.304001   C199.949860,142.618042 182.409515,152.779510 167.347076,166.889206   C165.115356,168.979767 163.308304,168.879745 160.690887,168.218460   C147.454758,164.874329 133.873611,170.735611 127.333885,182.394196   C120.708084,194.206238 122.702065,208.591141 132.534592,218.178085   C134.459503,220.054916 134.942200,221.548004 134.270813,224.219421   C128.767365,246.117477 128.908081,268.051178 134.114319,290.020935   C134.503891,291.664948 133.766205,294.246857 132.591888,295.471893   C128.061905,300.197754 124.925240,305.500977 123.909988,312.002380   C120.516937,333.730469 139.723907,351.095642 161.395081,345.692505   C164.387497,344.946381 166.262466,345.332458 168.424866,347.467743   C172.450699,351.443176 176.655960,355.275635 181.090775,358.782867   C183.539688,360.719543 183.802643,362.298462 182.527954,365.032593   C177.038834,376.806641 171.754013,388.676025 166.418900,400.521545   C165.694656,402.129578 165.106873,403.799042 164.202316,406.079346   C172.261139,406.079346 179.579041,405.812958 186.864471,406.183960   C190.927628,406.390839 192.715118,404.828857 194.226746,401.257507   C198.042053,392.243347 202.312164,383.421722 206.394424,374.535156   C212.941788,376.253632 219.074448,377.717316 225.089264,379.564667   C226.297806,379.935883 227.561691,381.618622 227.948303,382.944977   C232.141266,397.329285 242.900970,406.000824 256.880981,406.041840   C270.916138,406.083008 281.951172,397.359314 285.996674,383.173828   C286.347931,381.942169 287.265900,380.266357 288.290710,379.932434   C294.273132,377.983002 300.366028,376.372406 306.887268,374.514771   C311.163055,383.816406 315.393799,393.201935 319.834137,402.487213   C320.516235,403.913605 322.127167,405.851318 323.371277,405.898529   C331.471832,406.205811 339.589722,406.056335 348.446442,406.056335   C347.510712,403.671417 346.912659,401.995361 346.204712,400.367096   C341.091278,388.606598 335.968933,376.849976 330.814423,365.107452   C329.917816,363.064850 329.053802,361.422668 331.490997,359.499207   C336.715363,355.375946 341.547028,350.756287 346.752167,346.606659   C347.905884,345.686890 350.072083,345.299011 351.549316,345.637787   C365.918121,348.933136 379.554016,343.759766 386.311157,332.231140   C393.451752,320.048248 391.414642,306.357971 381.020416,295.166931   C380.021698,294.091675 379.363678,291.892273 379.706207,290.499725   C385.185852,268.220978 385.169617,245.995514 379.778778,223.702698   C379.413513,222.192291 380.336761,220.112869 381.202850,218.610626   C383.746826,214.197998 387.643158,210.275131 389.091461,205.569977   C396.089417,182.836105 376.419220,163.078033 352.358246,168.088181   C350.455902,168.484283 347.562653,168.140350 346.288513,166.925354   C330.044647,151.435181 311.420685,140.290268 289.600891,134.579681   C288.145081,134.198685 286.472961,132.280807 286.033478,130.752258   C282.369232,118.008842 272.856018,109.508919 260.290558,108.128914   C247.234482,106.695038 236.259262,112.975815 229.571472,126.213211  z"
   id="path1"
   style="fill:#ff9800;fill-opacity:1" />
<path
   fill="#FFFEFC"
   opacity="1.000000"
   stroke="none"
   d=" M229.736481,125.866425   C236.259262,112.975815 247.234482,106.695038 260.290558,108.128914   C272.856018,109.508919 282.369232,118.008842 286.033478,130.752258   C286.472961,132.280807 288.145081,134.198685 289.600891,134.579681   C311.420685,140.290268 330.044647,151.435181 346.288513,166.925354   C347.562653,168.140350 350.455902,168.484283 352.358246,168.088181   C376.419220,163.078033 396.089417,182.836105 389.091461,205.569977   C387.643158,210.275131 383.746826,214.197998 381.202850,218.610626   C380.336761,220.112869 379.413513,222.192291 379.778778,223.702698   C385.169617,245.995514 385.185852,268.220978 379.706207,290.499725   C379.363678,291.892273 380.021698,294.091675 381.020416,295.166931   C391.414642,306.357971 393.451752,320.048248 386.311157,332.231140   C379.554016,343.759766 365.918121,348.933136 351.549316,345.637787   C350.072083,345.299011 347.905884,345.686890 346.752167,346.606659   C341.547028,350.756287 336.715363,355.375946 331.490997,359.499207   C329.053802,361.422668 329.917816,363.064850 330.814423,365.107452   C335.968933,376.849976 341.091278,388.606598 346.204712,400.367096   C346.912659,401.995361 347.510712,403.671417 348.446442,406.056335   C339.589722,406.056335 331.471832,406.205811 323.371277,405.898529   C322.127167,405.851318 320.516235,403.913605 319.834137,402.487213   C315.393799,393.201935 311.163055,383.816406 306.887268,374.514771   C300.366028,376.372406 294.273132,377.983002 288.290710,379.932434   C287.265900,380.266357 286.347931,381.942169 285.996674,383.173828   C281.951172,397.359314 270.916138,406.083008 256.880981,406.041840   C242.900970,406.000824 232.141266,397.329285 227.948303,382.944977   C227.561691,381.618622 226.297806,379.935883 225.089264,379.564667   C219.074448,377.717316 212.941788,376.253632 206.394424,374.535156   C202.312164,383.421722 198.042053,392.243347 194.226746,401.257507   C192.715118,404.828857 190.927628,406.390839 186.864471,406.183960   C179.579041,405.812958 172.261139,406.079346 164.202316,406.079346   C165.106873,403.799042 165.694656,402.129578 166.418900,400.521545   C171.754013,388.676025 177.038834,376.806641 182.527954,365.032593   C183.802643,362.298462 183.539688,360.719543 181.090775,358.782867   C176.655960,355.275635 172.450699,351.443176 168.424866,347.467743   C166.262466,345.332458 164.387497,344.946381 161.395081,345.692505   C139.723907,351.095642 120.516937,333.730469 123.909988,312.002380   C124.925240,305.500977 128.061905,300.197754 132.591888,295.471893   C133.766205,294.246857 134.503891,291.664948 134.114319,290.020935   C128.908081,268.051178 128.767365,246.117477 134.270813,224.219421   C134.942200,221.548004 134.459503,220.054916 132.534592,218.178085   C122.702065,208.591141 120.708084,194.206238 127.333885,182.394196   C133.873611,170.735611 147.454758,164.874329 160.690887,168.218460   C163.308304,168.879745 165.115356,168.979767 167.347076,166.889206   C182.409515,152.779510 199.949860,142.618042 219.513062,136.304001   C225.167068,134.479156 228.955292,132.332550 229.736481,125.866425  M193.080246,170.570358   C189.545792,173.610397 186.069565,176.721924 182.456360,179.665314   C180.057327,181.619629 179.694153,183.456345 180.912201,186.505157   C188.158829,204.643951 178.217133,222.513138 158.939392,226.163284   C155.947098,226.729874 154.327576,227.739807 153.710373,230.948715   C150.356171,248.387695 150.380692,265.685852 154.885452,282.951477   C155.674606,285.976074 157.053238,287.325287 160.123184,287.851715   C171.266342,289.762329 178.620010,296.610870 181.342758,307.231110   C182.803482,312.928741 181.619370,319.289612 181.770538,325.347687   C181.810760,326.959045 181.829010,329.117676 182.796890,330.059784   C186.103516,333.278381 189.828583,336.067169 193.629959,339.215332   C194.380020,338.005920 194.989502,337.234772 195.378235,336.364899   C201.966888,321.621765 208.611694,306.902161 214.967545,292.058960   C215.610825,290.556671 215.030151,287.942322 214.079803,286.435394   C202.978485,268.832550 201.733383,250.560181 211.721725,232.413040   C225.681686,207.050110 260.127594,198.836075 284.839264,214.258392   C309.781128,229.824371 316.253998,261.446503 299.360199,286.286407   C297.351074,289.240479 297.430481,291.336609 298.831329,294.348175   C305.079987,307.781616 311.078735,321.331207 317.189575,334.828949   C317.836700,336.258301 318.626862,337.622833 319.604736,339.507019   C322.958527,336.585388 325.760773,334.007385 328.711761,331.612701   C331.562103,329.299652 332.361420,326.993042 331.370819,323.061005   C327.475647,307.599121 337.988525,291.364166 353.574860,287.498413   C355.356201,287.056641 357.561340,285.127380 358.113220,283.417603   C363.785278,265.845123 364.059570,248.047104 359.225769,230.250549   C358.801270,228.687683 356.703888,226.826385 355.076691,226.457611   C335.391724,221.996307 325.878082,204.767227 333.210358,186.151154   C334.219299,183.589462 334.070923,182.016953 332.115997,180.036026   C319.310974,167.060638 304.185272,158.092163 286.687744,153.012756   C284.112274,152.265121 282.639984,152.511063 280.908661,154.916168   C268.711670,171.860077 245.288376,171.866852 233.100250,154.930801   C231.371277,152.528259 229.915604,152.256516 227.332474,153.039719   C215.082153,156.753891 203.922073,162.556778 193.080246,170.570358  M263.670654,347.351532   C268.500671,350.118530 273.318146,352.907898 278.169739,355.636566   C279.357513,356.304626 280.858276,357.494812 281.871094,357.212158   C286.762848,355.847015 291.537140,354.061005 296.909058,352.235260   C289.748108,336.024017 282.878784,320.472992 275.940521,304.765930   C262.807220,309.230011 250.221985,308.955963 237.314987,304.822601   C230.325577,320.678986 223.466583,336.239502 216.382767,352.310089   C221.792450,354.063263 226.460037,355.750336 231.240616,357.007843   C232.502655,357.339783 234.604523,356.813934 235.486938,355.887634   C243.049927,347.948822 252.276535,345.584320 263.670654,347.351532  z"
   id="path2" />
<path
   fill="#FF9903"
   opacity="1.000000"
   stroke="none"
   d=" M193.359604,170.345215   C203.922073,162.556778 215.082153,156.753891 227.332474,153.039719   C229.915604,152.256516 231.371277,152.528259 233.100250,154.930801   C245.288376,171.866852 268.711670,171.860077 280.908661,154.916168   C282.639984,152.511063 284.112274,152.265121 286.687744,153.012756   C304.185272,158.092163 319.310974,167.060638 332.115997,180.036026   C334.070923,182.016953 334.219299,183.589462 333.210358,186.151154   C325.878082,204.767227 335.391724,221.996307 355.076691,226.457611   C356.703888,226.826385 358.801270,228.687683 359.225769,230.250549   C364.059570,248.047104 363.785278,265.845123 358.113220,283.417603   C357.561340,285.127380 355.356201,287.056641 353.574860,287.498413   C337.988525,291.364166 327.475647,307.599121 331.370819,323.061005   C332.361420,326.993042 331.562103,329.299652 328.711761,331.612701   C325.760773,334.007385 322.958527,336.585388 319.604736,339.507019   C318.626862,337.622833 317.836700,336.258301 317.189575,334.828949   C311.078735,321.331207 305.079987,307.781616 298.831329,294.348175   C297.430481,291.336609 297.351074,289.240479 299.360199,286.286407   C316.253998,261.446503 309.781128,229.824371 284.839264,214.258392   C260.127594,198.836075 225.681686,207.050110 211.721725,232.413040   C201.733383,250.560181 202.978485,268.832550 214.079803,286.435394   C215.030151,287.942322 215.610825,290.556671 214.967545,292.058960   C208.611694,306.902161 201.966888,321.621765 195.378235,336.364899   C194.989502,337.234772 194.380020,338.005920 193.629959,339.215332   C189.828583,336.067169 186.103516,333.278381 182.796890,330.059784   C181.829010,329.117676 181.810760,326.959045 181.770538,325.347687   C181.619370,319.289612 182.803482,312.928741 181.342758,307.231110   C178.620010,296.610870 171.266342,289.762329 160.123184,287.851715   C157.053238,287.325287 155.674606,285.976074 154.885452,282.951477   C150.380692,265.685852 150.356171,248.387695 153.710373,230.948715   C154.327576,227.739807 155.947098,226.729874 158.939392,226.163284   C178.217133,222.513138 188.158829,204.643951 180.912201,186.505157   C179.694153,183.456345 180.057327,181.619629 182.456360,179.665314   C186.069565,176.721924 189.545792,173.610397 193.359604,170.345215  z"
   id="path3" />
<path
   fill="#FF9A04"
   opacity="1.000000"
   stroke="none"
   d=" M263.244507,347.264526   C252.276535,345.584320 243.049927,347.948822 235.486938,355.887634   C234.604523,356.813934 232.502655,357.339783 231.240616,357.007843   C226.460037,355.750336 221.792450,354.063263 216.382767,352.310089   C223.466583,336.239502 230.325577,320.678986 237.314987,304.822601   C250.221985,308.955963 262.807220,309.230011 275.940521,304.765930   C282.878784,320.472992 289.748108,336.024017 296.909058,352.235260   C291.537140,354.061005 286.762848,355.847015 281.871094,357.212158   C280.858276,357.494812 279.357513,356.304626 278.169739,355.636566   C273.318146,352.907898 268.500671,350.118530 263.244507,347.264526  z"
   id="path4" />
</svg>
